# xmcd
#
# Track frame offsets:
#	150
#	12938
#	24503
#	41696
#	60932
#	77389
#	90268
#	102746
#	115204
#	132681
#	146711
#	162720
#	180365
#	197664
#	217404
#
# Disc length: 3095 seconds
#
# Revision: 1
# Processed by: cddbd v1.5.2PL0 Copyright (c) Steve Scherf et al.
# Submitted via: EasyCDDAExtractor 10.2.0.1
#
DISCID=d10c150f
DTITLE=Oak Ridge Boys, The - ChartBuster CDG 90108
DYEAR=1900
DGENRE=Country
TTITLE0=American Made
TTITLE1=Bobbie Sue
TTITLE2=Elvira
TTITLE3=It Takes A Little Rain
TTITLE4=Lucky Moon
TTITLE5=No Matter How High
TTITLE6=Thank God For Kids
TTITLE7=Tryin' To Love Two Women
TTITLE8=You're My Soul And Inspiration
TTITLE9=Y'All Com Back Saloon
TTITLE10=You're The One
TTITLE11=I'll Be True To You
TTITLE12=Fancy Free
TTITLE13=Everyday
TTITLE14=Leaving Louisiana In The Broad Daylight
EXTD=
EXTT0=
EXTT1=
EXTT2=
EXTT3=
EXTT4=
EXTT5=
EXTT6=
EXTT7=
EXTT8=
EXTT9=
EXTT10=
EXTT11=
EXTT12=
EXTT13=
EXTT14=
PLAYORDER=
